<svg xmlns="http://www.w3.org/2000/svg" width="116.25" height="150.25" viewBox="0 0 116.25 150.25"><ellipse opacity=".2" fill="#070707" cx="57.778" cy="140.154" rx="22.871" ry="6.318"/><path fill="#FFB300" stroke="#353535" stroke-width="6" stroke-linecap="round" stroke-linejoin="round" stroke-miterlimit="10" d="M111.626 57.277c0 29.55-34.626 79.516-53.502 79.516-19.5 0-53.5-49.97-53.5-79.516 0-29.547 23.953-53.5 53.5-53.5 29.548 0 53.502 23.952 53.502 53.5z"/><path fill="none" stroke="#353535" stroke-width="6" stroke-linecap="round" stroke-linejoin="round" stroke-miterlimit="10" d="M21.624 56.278c0-18.5 15-33.5 33.5-33.5"/><path fill="#F5F5F5" stroke="#F5F5F5" stroke-width=".75" stroke-miterlimit="10" d="M87.73 49.517h-3.312c-1.288 0-1.9.674-2.146 1.104-.244.43-.307.798-.307 1.044l-.49 2.514H40.39c-.857 0-1.47.246-1.9.736-.368.43-.552.98-.49 1.594v.123l4.598 19.072c.246 1.04 1.166 2.207 2.82 2.207h31.09l-.86 4.228c-.427-.123-.855-.184-1.286-.184-2.573 0-4.72 1.777-5.21 4.23H52.59c-.55-2.392-2.636-4.23-5.21-4.23-2.944 0-5.336 2.39-5.336 5.334s2.392 5.336 5.335 5.336c2.576 0 4.722-1.78 5.213-4.232h16.495c.553 2.394 2.637 4.232 5.213 4.232 2.944 0 5.337-2.393 5.337-5.336 0-1.654-.736-3.127-1.902-4.107l1.72-8.4 4.106-19.376.613-3.557v-.123s.123-.06.246-.06h3.31c.613 0 1.105-.492 1.105-1.105-.002-.553-.492-1.043-1.106-1.043zM47.38 90.48c-1.716 0-3.065-1.35-3.065-3.066s1.35-3.065 3.066-3.065c1.718 0 3.067 1.35 3.067 3.064 0 1.654-1.35 3.065-3.066 3.065zm26.92 0c-1.716 0-3.065-1.35-3.065-3.066s1.35-3.065 3.066-3.065c1.718 0 3.067 1.35 3.067 3.064 0 1.654-1.35 3.065-3.066 3.065zM40.39 56.445h40.656l-.858 4.108H41.31l-.98-4.047v-.062h.06zm4.416 18.966l-3.004-12.386h37.835l-2.7 12.693c-.06.183-.306.183-.368.183H45.48c-.368 0-.55-.184-.674-.49z"/></svg>