<svg xmlns="http://www.w3.org/2000/svg" xmlns:xlink="http://www.w3.org/1999/xlink" width="116.25" height="150.25" viewBox="0 0 116.25 150.25"><ellipse opacity=".2" fill="#070707" cx="57.576" cy="141.127" rx="22.869" ry="6.318"/><path fill="#FFB300" stroke="#353535" stroke-width="6" stroke-linecap="round" stroke-linejoin="round" stroke-miterlimit="10" d="M111.422 58.25c0 29.55-34.625 79.516-53.5 79.516-19.5 0-53.5-49.97-53.5-79.516s23.953-53.5 53.5-53.5 53.5 23.953 53.5 53.5z"/><path fill="none" stroke="#353535" stroke-width="6" stroke-linecap="round" stroke-linejoin="round" stroke-miterlimit="10" d="M21.422 57.25c0-18.5 15-33.5 33.5-33.5"/><g><defs><path id="a" d="M37.097 45.918H82.43V91.25H37.097z"/></defs><clipPath id="b"><use xlink:href="#a" overflow="visible"/></clipPath><g clip-path="url(#b)"><path fill="#F5F5F5" d="M75.818 86.057h-5.194c-.782 0-1.416-.633-1.416-1.416 0-.78.634-1.415 1.416-1.415h5.194c2.082 0 3.777-1.694 3.777-3.777v-10.39c0-2.083-1.695-3.778-3.777-3.778h-5.194c-.782 0-1.416-.634-1.416-1.417s.634-1.417 1.416-1.417h5.194c3.646 0 6.61 2.966 6.61 6.61v10.39c.002 3.646-2.964 6.61-6.61 6.61z"/></g><defs><path id="c" d="M37.097 45.918H82.43V91.25H37.097z"/></defs><clipPath id="d"><use xlink:href="#c" overflow="visible"/></clipPath><g clip-path="url(#d)"><path fill="#F5F5F5" d="M54.57 64.807H38.513c-.783 0-1.417-.633-1.417-1.416 0-.782.634-1.416 1.417-1.416H54.57c.78 0 1.415.634 1.415 1.417 0 .784-.634 1.417-1.416 1.417z"/></g><g><defs><path id="e" d="M37.097 45.918H82.43V91.25H37.097z"/></defs><clipPath id="f"><use xlink:href="#e" overflow="visible"/></clipPath><g clip-path="url(#f)"><path fill="#F5F5F5" d="M61.182 64.807h-2.834c-.782 0-1.417-.633-1.417-1.416 0-.782.636-1.416 1.418-1.416h2.834c.78 0 1.416.634 1.416 1.417 0 .784-.635 1.417-1.416 1.417z"/></g></g><g><defs><path id="g" d="M37.097 45.918H82.43V91.25H37.097z"/></defs><clipPath id="h"><use xlink:href="#g" overflow="visible"/></clipPath><g clip-path="url(#h)"><path fill="#F5F5F5" d="M65.432 91.252H43.708c-3.645 0-6.61-2.967-6.61-6.61V55.36c0-5.207 4.236-9.444 9.443-9.444 4.115 0 7.623 2.644 8.916 6.322 1.157-.997 2.663-1.6 4.31-1.6 3.485 0 6.35 2.714 6.594 6.138h3.322c1.3 0 2.36 1.06 2.36 2.36v25.5c0 3.647-2.967 6.614-6.61 6.614zm-18.89-42.5c-3.646 0-6.61 2.965-6.61 6.61v29.28c0 2.08 1.694 3.775 3.777 3.775H65.43c2.084 0 3.777-1.694 3.777-3.776V59.614h-4.25c-.783 0-1.417-.635-1.417-1.417v-.945c0-2.082-1.695-3.777-3.777-3.777-2.083 0-3.78 1.694-3.78 3.778v.946c0 .782-.634 1.417-1.415 1.417-.78 0-1.416-.635-1.416-1.417v-2.834c-.002-3.645-2.967-6.61-6.612-6.61z"/></g></g></g></svg>