<svg xmlns="http://www.w3.org/2000/svg" xmlns:xlink="http://www.w3.org/1999/xlink" width="116.25" height="150.25" viewBox="0 0 116.25 150.25"><ellipse opacity=".2" fill="#070707" cx="57.57" cy="141.122" rx="22.87" ry="6.317"/><path fill="#353535" stroke="#353535" stroke-width="6" stroke-miterlimit="10" d="M111.504 59.24c0 29.548-34.625 79.516-53.5 79.516-19.5 0-53.5-49.968-53.5-79.517 0-29.548 23.953-53.5 53.5-53.5s53.5 23.95 53.5 53.5z"/><defs><path id="a" d="M38.572 45.524h45.333v45.333H38.572z"/></defs><clipPath id="b"><use xlink:href="#a" overflow="visible"/></clipPath><g clip-path="url(#b)"><path fill="#F5F5F5" d="M77.293 85.665H72.1c-.783 0-1.416-.635-1.416-1.418 0-.78.633-1.416 1.416-1.416h5.193c2.083 0 3.777-1.694 3.777-3.775V68.663c0-2.083-1.694-3.778-3.777-3.778H72.1c-.783 0-1.416-.634-1.416-1.417s.633-1.417 1.416-1.417h5.193c3.646 0 6.61 2.967 6.61 6.612v10.39c0 3.646-2.965 6.613-6.61 6.613z"/></g><defs><path id="c" d="M38.572 45.524h45.333v45.333H38.572z"/></defs><clipPath id="d"><use xlink:href="#c" overflow="visible"/></clipPath><g clip-path="url(#d)"><path fill="#F5F5F5" d="M56.044 64.413H39.99c-.784 0-1.418-.633-1.418-1.416s.634-1.417 1.417-1.417h16.055c.78 0 1.416.634 1.416 1.417s-.634 1.416-1.416 1.416z"/></g><g><defs><path id="e" d="M38.572 45.524h45.333v45.333H38.572z"/></defs><clipPath id="f"><use xlink:href="#e" overflow="visible"/></clipPath><g clip-path="url(#f)"><path fill="#F5F5F5" d="M62.654 64.413H59.82c-.78 0-1.417-.633-1.417-1.416s.634-1.417 1.417-1.417h2.834c.78 0 1.416.634 1.416 1.417s-.632 1.416-1.416 1.416z"/></g></g><g><defs><path id="g" d="M38.572 45.524h45.333v45.333H38.572z"/></defs><clipPath id="h"><use xlink:href="#g" overflow="visible"/></clipPath><g clip-path="url(#h)"><path fill="#F5F5F5" d="M66.904 90.857h-21.72c-3.647 0-6.612-2.965-6.612-6.61v-29.28c0-5.206 4.236-9.443 9.444-9.443 4.114 0 7.622 2.644 8.915 6.322 1.158-.997 2.664-1.6 4.308-1.6 3.486 0 6.35 2.714 6.595 6.138h3.32c1.304 0 2.362 1.06 2.362 2.36v25.502c0 3.647-2.965 6.61-6.61 6.61zm-18.888-42.5c-3.646 0-6.61 2.966-6.61 6.61v29.28c0 2.084 1.693 3.778 3.777 3.778h21.72c2.085 0 3.778-1.694 3.778-3.778V59.22h-4.25c-.782 0-1.415-.636-1.415-1.418v-.945c0-2.083-1.695-3.778-3.777-3.778-2.084 0-3.778 1.693-3.778 3.777v.945c0 .782-.635 1.417-1.416 1.417-.783 0-1.417-.636-1.417-1.418v-2.834c0-3.645-2.965-6.61-6.61-6.61z"/></g></g></svg>