<svg xmlns="http://www.w3.org/2000/svg" width="116.25" height="150.25" viewBox="0 0 116.25 150.25"><ellipse opacity=".2" fill="#070707" cx="57.576" cy="141.127" rx="22.869" ry="6.318"/><path fill="#FFB300" stroke="#353535" stroke-width="6" stroke-linecap="round" stroke-linejoin="round" stroke-miterlimit="10" d="M111.422 58.25c0 29.55-34.625 79.516-53.5 79.516-19.5 0-53.5-49.97-53.5-79.516s23.953-53.5 53.5-53.5 53.5 23.953 53.5 53.5z"/><path fill="none" stroke="#353535" stroke-width="6" stroke-linecap="round" stroke-linejoin="round" stroke-miterlimit="10" d="M21.422 57.25c0-18.5 15-33.5 33.5-33.5"/><path fill="#FFF" d="M57.826 73.6c-.037.314-.365.566-.678.602 0 0-5.156.784-8.36-2.418-2.95-2.95-2.38-8.32-2.38-8.32.038-.314.327-.605.64-.642 0 0 5.346-.596 8.322 2.38 3.202 3.205 2.456 8.397 2.456 8.397m2.516-8.347c-.25.195-.658.248-.906.053 0 0-4.2-3.146-4.2-7.675 0-4.207 4.2-7.565 4.2-7.565.248-.195.656-.195.906 0 0 0 4.2 3.396 4.2 7.566 0 4.53-4.2 7.623-4.2 7.623m10.646 6.53c-3.203 3.203-8.36 2.42-8.36 2.42-.313-.037-.64-.29-.677-.604 0 0-.745-5.193 2.456-8.397 2.977-2.977 8.32-2.38 8.32-2.38.315.036.604.326.642.64 0 0 .57 5.37-2.38 8.32m-13.162 15.45c-.037.312-.365.564-.678.603 0 0-5.156.784-8.36-2.418-2.95-2.95-2.38-8.32-2.38-8.32.038-.313.327-.604.64-.642 0 0 5.346-.597 8.322 2.38 3.202 3.204 2.456 8.396 2.456 8.396m13.162-1.814c-3.203 3.202-8.36 2.418-8.36 2.418-.313-.037-.64-.29-.677-.604 0 0-.745-5.192 2.456-8.396 2.977-2.977 8.32-2.38 8.32-2.38.315.037.604.327.642.642 0 0 .57 5.37-2.38 8.32"/></svg>