<?xml version="1.0" encoding="utf-8"?>
<!-- Generator: Adobe Illustrator 16.0.0, SVG Export Plug-In . SVG Version: 6.00 Build 0)  -->
<!DOCTYPE svg PUBLIC "-//W3C//DTD SVG 1.1//EN" "http://www.w3.org/Graphics/SVG/1.1/DTD/svg11.dtd">
<svg version="1.1" id="Layer_1" xmlns="http://www.w3.org/2000/svg" xmlns:xlink="http://www.w3.org/1999/xlink" x="0px" y="0px"
	 width="116.25px" height="150.25px" viewBox="0 0 116.25 150.25" enable-background="new 0 0 116.25 150.25" xml:space="preserve">
<g>
	<ellipse opacity="0.2" fill="#070707" enable-background="new    " cx="57.576" cy="141.127" rx="22.869" ry="6.318"/>
	
		<path fill="#FFB300" stroke="#353535" stroke-width="6" stroke-linecap="round" stroke-linejoin="round" stroke-miterlimit="10" d="
		M111.422,58.25c0,29.549-34.625,79.516-53.5,79.516c-19.5,0-53.5-49.969-53.5-79.516s23.953-53.5,53.5-53.5
		S111.422,28.703,111.422,58.25z"/>
	<path fill="none" stroke="#353535" stroke-width="6" stroke-linecap="round" stroke-linejoin="round" stroke-miterlimit="10" d="
		M21.422,57.251c0-18.501,14.999-33.5,33.5-33.5"/>
	<g>
		<path fill="#FFFFFF" d="M57.826,73.599c-0.037,0.315-0.365,0.567-0.678,0.603c0,0-5.156,0.784-8.36-2.418
			c-2.949-2.951-2.38-8.321-2.38-8.321c0.038-0.313,0.327-0.604,0.641-0.641c0,0,5.345-0.596,8.321,2.381
			C58.572,68.407,57.826,73.599,57.826,73.599 M60.342,65.253c-0.25,0.195-0.658,0.248-0.906,0.053c0,0-4.2-3.146-4.2-7.675
			c0-4.208,4.2-7.566,4.2-7.566c0.248-0.195,0.656-0.195,0.906,0c0,0,4.199,3.396,4.199,7.566
			C64.541,62.16,60.342,65.253,60.342,65.253 M70.988,71.784c-3.203,3.202-8.359,2.418-8.359,2.418
			c-0.314-0.036-0.641-0.288-0.678-0.603c0,0-0.746-5.192,2.455-8.396c2.977-2.977,8.32-2.381,8.32-2.381
			c0.315,0.037,0.604,0.327,0.642,0.641C73.368,63.463,73.938,68.833,70.988,71.784 M57.826,87.232
			c-0.037,0.313-0.365,0.565-0.678,0.604c0,0-5.156,0.784-8.36-2.418c-2.949-2.951-2.38-8.32-2.38-8.32
			c0.038-0.313,0.327-0.604,0.641-0.642c0,0,5.345-0.597,8.321,2.38C58.572,82.04,57.826,87.232,57.826,87.232 M70.988,85.418
			c-3.203,3.202-8.359,2.418-8.359,2.418c-0.314-0.037-0.641-0.289-0.678-0.604c0,0-0.746-5.192,2.455-8.396
			c2.977-2.977,8.32-2.38,8.32-2.38c0.315,0.037,0.604,0.327,0.642,0.642C73.368,77.098,73.938,82.467,70.988,85.418"/>
	</g>
</g>
</svg>
