<?xml version="1.0" encoding="utf-8"?>
<!-- Generator: Adobe Illustrator 16.0.0, SVG Export Plug-In . SVG Version: 6.00 Build 0)  -->
<!DOCTYPE svg PUBLIC "-//W3C//DTD SVG 1.1//EN" "http://www.w3.org/Graphics/SVG/1.1/DTD/svg11.dtd">
<svg version="1.1" id="Layer_1" xmlns="http://www.w3.org/2000/svg" xmlns:xlink="http://www.w3.org/1999/xlink" x="0px" y="0px"
	 width="116.25px" height="150.25px" viewBox="0 0 116.25 150.25" enable-background="new 0 0 116.25 150.25" xml:space="preserve">
<g>
	<ellipse opacity="0.2" fill="#070707" enable-background="new    " cx="57.57" cy="141.122" rx="22.87" ry="6.317"/>
	<path fill="#353535" stroke="#353535" stroke-width="6" stroke-miterlimit="10" d="M111.504,59.239
		c0,29.549-34.625,79.517-53.5,79.517c-19.5,0-53.5-49.968-53.5-79.517c0-29.547,23.953-53.5,53.5-53.5
		S111.504,29.691,111.504,59.239z"/>
	<g>
		<g>
			<defs>
				<rect id="SVGID_1_" x="38.572" y="45.524" width="45.333" height="45.333"/>
			</defs>
			<clipPath id="SVGID_2_">
				<use xlink:href="#SVGID_1_"  overflow="visible"/>
			</clipPath>
			<g clip-path="url(#SVGID_2_)">
				<path fill="#F5F5F5" d="M77.293,85.665H72.1c-0.783,0-1.416-0.635-1.416-1.418c0-0.781,0.633-1.416,1.416-1.416h5.193
					c2.083,0,3.777-1.695,3.777-3.776V68.663c0-2.083-1.694-3.778-3.777-3.778H72.1c-0.783,0-1.416-0.634-1.416-1.417
					c0-0.783,0.633-1.417,1.416-1.417h5.193c3.646,0,6.611,2.966,6.611,6.611v10.391C83.904,82.698,80.938,85.665,77.293,85.665z"/>
			</g>
		</g>
		<g>
			<defs>
				<rect id="SVGID_3_" x="38.572" y="45.524" width="45.333" height="45.333"/>
			</defs>
			<clipPath id="SVGID_4_">
				<use xlink:href="#SVGID_3_"  overflow="visible"/>
			</clipPath>
			<g clip-path="url(#SVGID_4_)">
				<path fill="#F5F5F5" d="M56.044,64.413H39.989c-0.783,0-1.417-0.633-1.417-1.416s0.634-1.417,1.417-1.417h16.056
					c0.781,0,1.416,0.634,1.416,1.417S56.826,64.413,56.044,64.413z"/>
			</g>
		</g>
		<g>
			<defs>
				<rect id="SVGID_5_" x="38.572" y="45.524" width="45.333" height="45.333"/>
			</defs>
			<clipPath id="SVGID_6_">
				<use xlink:href="#SVGID_5_"  overflow="visible"/>
			</clipPath>
			<g clip-path="url(#SVGID_6_)">
				<path fill="#F5F5F5" d="M62.654,64.413H59.82c-0.781,0-1.417-0.633-1.417-1.416s0.634-1.417,1.417-1.417h2.834
					c0.781,0,1.416,0.634,1.416,1.417S63.438,64.413,62.654,64.413z"/>
			</g>
		</g>
		<g>
			<defs>
				<rect id="SVGID_7_" x="38.572" y="45.524" width="45.333" height="45.333"/>
			</defs>
			<clipPath id="SVGID_8_">
				<use xlink:href="#SVGID_7_"  overflow="visible"/>
			</clipPath>
			<g clip-path="url(#SVGID_8_)">
				<path fill="#F5F5F5" d="M66.904,90.857H45.183c-3.646,0-6.611-2.965-6.611-6.61V54.968c0-5.207,4.236-9.444,9.444-9.444
					c4.114,0,7.622,2.644,8.915,6.322c1.157-0.997,2.663-1.6,4.307-1.6c3.486,0,6.351,2.714,6.595,6.138h3.321
					c1.303,0,2.361,1.06,2.361,2.361v25.501C73.516,87.893,70.55,90.857,66.904,90.857z M48.016,48.358
					c-3.646,0-6.611,2.965-6.611,6.61v29.279c0,2.084,1.694,3.778,3.778,3.778h21.721c2.084,0,3.777-1.694,3.777-3.778V59.219h-4.25
					c-0.783,0-1.416-0.635-1.416-1.417v-0.945c0-2.083-1.695-3.778-3.777-3.778c-2.084,0-3.778,1.694-3.778,3.778v0.945
					c0,0.782-0.635,1.417-1.416,1.417c-0.783,0-1.417-0.635-1.417-1.417v-2.834C54.627,51.323,51.662,48.358,48.016,48.358z"/>
			</g>
		</g>
	</g>
</g>
</svg>
