<?xml version="1.0" encoding="utf-8"?>
<!-- Generator: Adobe Illustrator 16.0.0, SVG Export Plug-In . SVG Version: 6.00 Build 0)  -->
<!DOCTYPE svg PUBLIC "-//W3C//DTD SVG 1.1//EN" "http://www.w3.org/Graphics/SVG/1.1/DTD/svg11.dtd">
<svg version="1.1" id="Layer_1" xmlns="http://www.w3.org/2000/svg" xmlns:xlink="http://www.w3.org/1999/xlink" x="0px" y="0px"
	 width="116.25px" height="150.25px" viewBox="0 0 116.25 150.25" enable-background="new 0 0 116.25 150.25" xml:space="preserve">
<g>
	<ellipse opacity="0.2" fill="#070707" enable-background="new    " cx="57.778" cy="140.154" rx="22.871" ry="6.318"/>
	<g>
		
			<path fill="#FFB300" stroke="#353535" stroke-width="6" stroke-linecap="round" stroke-linejoin="round" stroke-miterlimit="10" d="
			M111.626,57.277c0,29.549-34.626,79.516-53.502,79.516c-19.5,0-53.5-49.969-53.5-79.516c0-29.547,23.953-53.5,53.5-53.5
			C87.672,3.777,111.626,27.729,111.626,57.277z"/>
	</g>
	<path fill="none" stroke="#353535" stroke-width="6" stroke-linecap="round" stroke-linejoin="round" stroke-miterlimit="10" d="
		M21.624,56.278c0-18.501,14.999-33.5,33.5-33.5"/>
	<g>
		<path fill="#F5F5F5" stroke="#F5F5F5" stroke-width="0.75" stroke-miterlimit="10" d="M87.729,49.517h-3.311
			c-1.288,0-1.9,0.674-2.146,1.104c-0.244,0.43-0.307,0.797-0.307,1.043l-0.49,2.514H40.391c-0.858,0-1.472,0.246-1.901,0.736
			c-0.368,0.429-0.552,0.981-0.491,1.594c0,0.062,0,0.123,0,0.123l4.599,19.071c0.246,1.041,1.166,2.207,2.821,2.207h31.089
			l-0.859,4.229c-0.428-0.123-0.856-0.184-1.287-0.184c-2.573,0-4.721,1.777-5.211,4.23H52.593c-0.552-2.392-2.637-4.23-5.212-4.23
			c-2.943,0-5.335,2.391-5.335,5.334s2.392,5.336,5.335,5.336c2.575,0,4.721-1.779,5.212-4.232h16.495
			c0.553,2.394,2.637,4.232,5.213,4.232c2.943,0,5.336-2.393,5.336-5.336c0-1.654-0.736-3.127-1.902-4.107l1.719-8.4l0,0
			l4.107-19.377l0,0l0,0l0.612-3.557c0-0.123,0,0,0-0.123c0,0,0.123-0.061,0.246-0.061h3.312c0.612,0,1.104-0.491,1.104-1.104
			C88.833,50.007,88.343,49.517,87.729,49.517z M47.381,90.479c-1.717,0-3.066-1.35-3.066-3.065s1.349-3.065,3.066-3.065
			c1.717,0,3.066,1.35,3.066,3.065C50.447,89.068,49.098,90.479,47.381,90.479z M74.301,90.479c-1.717,0-3.066-1.35-3.066-3.065
			s1.351-3.065,3.066-3.065c1.717,0,3.066,1.35,3.066,3.065C77.367,89.068,76.018,90.479,74.301,90.479z M40.391,56.446h40.655
			l-0.858,4.108H41.311l-0.981-4.047v-0.062C40.33,56.446,40.33,56.446,40.391,56.446z M44.806,75.412l-3.004-12.386h37.835
			l-2.699,12.693c-0.062,0.184-0.307,0.184-0.369,0.184H45.48C45.112,75.902,44.929,75.719,44.806,75.412z"/>
	</g>
</g>
</svg>
