<?xml version="1.0" encoding="utf-8"?>
<!-- Generator: Adobe Illustrator 16.0.0, SVG Export Plug-In . SVG Version: 6.00 Build 0)  -->
<!DOCTYPE svg PUBLIC "-//W3C//DTD SVG 1.1//EN" "http://www.w3.org/Graphics/SVG/1.1/DTD/svg11.dtd">
<svg version="1.1" id="Layer_1" xmlns="http://www.w3.org/2000/svg" xmlns:xlink="http://www.w3.org/1999/xlink" x="0px" y="0px"
	 width="116.25px" height="150.25px" viewBox="0 0 116.25 150.25" enable-background="new 0 0 116.25 150.25" xml:space="preserve">
<g>
	<ellipse opacity="0.2" fill="#070707" enable-background="new    " cx="57.576" cy="141.127" rx="22.869" ry="6.318"/>
	
		<path fill="#FFB300" stroke="#353535" stroke-width="6" stroke-linecap="round" stroke-linejoin="round" stroke-miterlimit="10" d="
		M111.422,58.25c0,29.549-34.625,79.516-53.5,79.516c-19.5,0-53.5-49.969-53.5-79.516s23.953-53.5,53.5-53.5
		S111.422,28.703,111.422,58.25z"/>
	<path fill="none" stroke="#353535" stroke-width="6" stroke-linecap="round" stroke-linejoin="round" stroke-miterlimit="10" d="
		M21.422,57.251c0-18.501,14.999-33.5,33.5-33.5"/>
</g>
<g>
	<g>
		<defs>
			<rect id="SVGID_1_" x="37.097" y="45.918" width="45.333" height="45.333"/>
		</defs>
		<clipPath id="SVGID_2_">
			<use xlink:href="#SVGID_1_"  overflow="visible"/>
		</clipPath>
		<g clip-path="url(#SVGID_2_)">
			<path fill="#F5F5F5" d="M75.818,86.057h-5.194c-0.782,0-1.416-0.633-1.416-1.416c0-0.781,0.634-1.416,1.416-1.416h5.194
				c2.082,0,3.777-1.694,3.777-3.777v-10.39c0-2.083-1.695-3.778-3.777-3.778h-5.194c-0.782,0-1.416-0.634-1.416-1.417
				c0-0.783,0.634-1.417,1.416-1.417h5.194c3.646,0,6.611,2.966,6.611,6.611v10.389C82.43,83.092,79.464,86.057,75.818,86.057z"/>
		</g>
	</g>
	<g>
		<defs>
			<rect id="SVGID_3_" x="37.097" y="45.918" width="45.333" height="45.333"/>
		</defs>
		<clipPath id="SVGID_4_">
			<use xlink:href="#SVGID_3_"  overflow="visible"/>
		</clipPath>
		<g clip-path="url(#SVGID_4_)">
			<path fill="#F5F5F5" d="M54.569,64.807H38.514c-0.783,0-1.417-0.633-1.417-1.416c0-0.783,0.634-1.417,1.417-1.417h16.055
				c0.781,0,1.416,0.634,1.416,1.417C55.985,64.174,55.351,64.807,54.569,64.807z"/>
		</g>
	</g>
	<g>
		<defs>
			<rect id="SVGID_5_" x="37.097" y="45.918" width="45.333" height="45.333"/>
		</defs>
		<clipPath id="SVGID_6_">
			<use xlink:href="#SVGID_5_"  overflow="visible"/>
		</clipPath>
		<g clip-path="url(#SVGID_6_)">
			<path fill="#F5F5F5" d="M61.182,64.807h-2.834c-0.782,0-1.417-0.633-1.417-1.416c0-0.783,0.635-1.417,1.417-1.417h2.834
				c0.781,0,1.416,0.634,1.416,1.417C62.598,64.174,61.963,64.807,61.182,64.807z"/>
		</g>
	</g>
	<g>
		<defs>
			<rect id="SVGID_7_" x="37.097" y="45.918" width="45.333" height="45.333"/>
		</defs>
		<clipPath id="SVGID_8_">
			<use xlink:href="#SVGID_7_"  overflow="visible"/>
		</clipPath>
		<g clip-path="url(#SVGID_8_)">
			<path fill="#F5F5F5" d="M65.432,91.252H43.708c-3.645,0-6.611-2.967-6.611-6.611V55.362c0-5.207,4.237-9.444,9.444-9.444
				c4.114,0,7.622,2.644,8.915,6.322c1.157-0.997,2.663-1.6,4.31-1.6c3.485,0,6.351,2.714,6.594,6.138h3.322
				c1.301,0,2.359,1.06,2.359,2.361v25.5C72.041,88.285,69.075,91.252,65.432,91.252z M46.542,48.752
				c-3.646,0-6.611,2.965-6.611,6.61v29.279c0,2.082,1.695,3.776,3.778,3.776h21.723c2.084,0,3.777-1.694,3.777-3.776V59.613h-4.25
				c-0.782,0-1.416-0.635-1.416-1.417v-0.945c0-2.083-1.695-3.778-3.777-3.778c-2.083,0-3.779,1.694-3.779,3.778v0.945
				c0,0.782-0.635,1.417-1.416,1.417c-0.782,0-1.417-0.635-1.417-1.417v-2.834C53.152,51.717,50.187,48.752,46.542,48.752z"/>
		</g>
	</g>
</g>
</svg>
